<?xml version="1.0" encoding="UTF-8" standalone="no"?>
<!-- Created with Inkscape (http://www.inkscape.org/) -->

<svg
   xmlns:dc="http://purl.org/dc/elements/1.1/"
   xmlns:cc="http://creativecommons.org/ns#"
   xmlns:rdf="http://www.w3.org/1999/02/22-rdf-syntax-ns#"
   xmlns:svg="http://www.w3.org/2000/svg"
   xmlns="http://www.w3.org/2000/svg"
   xmlns:sodipodi="http://sodipodi.sourceforge.net/DTD/sodipodi-0.dtd"
   xmlns:inkscape="http://www.inkscape.org/namespaces/inkscape"
   width="210mm"
   height="297mm"
   id="svg2"
   version="1.1"
   inkscape:version="0.48.4 r9939"
   inkscape:export-filename="/home/m4v/juegos/tsutils_36.png"
   inkscape:export-xdpi="7.5601573"
   inkscape:export-ydpi="7.5601573"
   sodipodi:docname="tsutils.svg">
  <defs
     id="defs4" />
  <sodipodi:namedview
     id="base"
     pagecolor="#ffffff"
     bordercolor="#666666"
     borderopacity="1.0"
     inkscape:pageopacity="0.0"
     inkscape:pageshadow="2"
     inkscape:zoom="1.9250401"
     inkscape:cx="330"
     inkscape:cy="598.11951"
     inkscape:document-units="px"
     inkscape:current-layer="layer1"
     showgrid="false"
     inkscape:window-width="1280"
     inkscape:window-height="1006"
     inkscape:window-x="-2"
     inkscape:window-y="-3"
     inkscape:window-maximized="1" />
  <metadata
     id="metadata7">
    <rdf:RDF>
      <cc:Work
         rdf:about="">
        <dc:format>image/svg+xml</dc:format>
        <dc:type
           rdf:resource="http://purl.org/dc/dcmitype/StillImage" />
        <dc:title></dc:title>
      </cc:Work>
    </rdf:RDF>
  </metadata>
  <g
     inkscape:label="Capa 1"
     inkscape:groupmode="layer"
     id="layer1">
    <path
       style="fill:#ffffff;fill-opacity:1;fill-rule:evenodd;stroke:none"
       d="M 115.71875 421.875 L 115.71875 657.59375 L 544.28125 657.59375 L 544.28125 421.875 L 115.71875 421.875 z M 475.59375 449.71875 C 480.24562 449.71893 484.54583 450.56153 488.5 452.21875 C 492.45407 453.87632 495.76259 455.86732 498.4375 458.1875 L 493.5625 475.84375 C 491.12019 473.52355 488.43864 471.75408 485.53125 470.59375 C 482.74006 469.26799 479.765 468.62516 476.625 468.625 C 470.92637 468.62516 466.33265 470.86894 462.84375 475.34375 C 459.47109 479.65312 457.78123 486.01618 457.78125 494.46875 C 457.78123 499.10958 458.29705 503.17584 459.34375 506.65625 C 460.5067 510.1369 461.97426 513.27629 463.71875 516.09375 C 465.57948 518.91143 467.67401 521.49225 470 523.8125 C 472.44222 526.13295 475.01261 528.54525 477.6875 531.03125 C 480.3623 533.51744 483.08381 536.23553 485.875 539.21875 C 488.66609 542.20214 491.16529 545.67858 493.375 549.65625 C 495.7009 553.46833 497.57311 558.04015 498.96875 563.34375 C 500.48056 568.48173 501.21868 574.62325 501.21875 581.75 C 501.21868 588.21388 500.52051 594.32415 499.125 600.125 C 497.72936 605.9259 495.52368 611.0563 492.5 615.53125 C 489.5925 619.84048 485.87931 623.34817 481.34375 626 C 476.92439 628.48609 471.67245 629.71875 465.625 629.71875 C 460.04268 629.71875 455.15545 628.79188 450.96875 626.96875 C 446.78202 625.14562 443.06883 622.76456 439.8125 619.78125 L 444.71875 601.875 C 447.74248 604.52685 450.79744 606.68637 453.9375 608.34375 C 457.19382 609.83542 460.93825 610.56252 465.125 610.5625 C 471.40504 610.56252 476.22107 608.0972 479.59375 603.125 C 483.08264 598.15284 484.81245 591.4215 484.8125 582.96875 C 484.81245 578.49383 484.29663 574.51183 483.25 571.03125 C 482.20327 567.55078 480.80692 564.41138 479.0625 561.59375 C 477.43429 558.77625 475.52212 556.22667 473.3125 553.90625 C 471.10281 551.58597 468.82592 549.25793 466.5 546.9375 C 463.82512 544.28575 461.03242 541.45215 458.125 538.46875 C 455.21754 535.48553 452.56724 532.00909 450.125 528.03125 C 447.79903 524.0536 445.85561 519.42877 444.34375 514.125 C 442.83187 508.82145 442.09374 502.59567 442.09375 495.46875 C 442.09374 488.50783 442.90307 482.19779 444.53125 476.5625 C 446.27571 470.92751 448.59254 466.13416 451.5 462.15625 C 454.52372 458.17867 458.0858 455.12353 462.15625 452.96875 C 466.34294 450.81431 470.82551 449.71893 475.59375 449.71875 z M 158.78125 453.6875 L 174.46875 453.6875 L 174.46875 570.8125 C 174.46872 583.90596 175.82512 593.74545 178.5 600.375 C 181.17481 606.83886 185.99084 610.06252 192.96875 610.0625 C 200.17916 610.06252 205.06639 606.7546 207.625 600.125 C 210.29978 593.32971 211.62493 583.57448 211.625 570.8125 L 211.625 453.6875 L 227.34375 453.6875 L 227.34375 572.78125 C 227.34367 592.17281 224.43981 606.49986 218.625 615.78125 C 212.81004 625.06266 204.13842 629.71875 192.625 629.71875 C 181.34408 629.71875 172.85481 625.14692 167.15625 616.03125 C 161.57394 606.9156 158.78124 592.50428 158.78125 572.78125 L 158.78125 453.6875 z M 243.34375 453.6875 L 312.78125 453.6875 L 312.78125 472.84375 L 285.90625 472.84375 L 285.90625 626 L 270.21875 626 L 270.21875 472.84375 L 243.34375 472.84375 L 243.34375 453.6875 z M 329.84375 453.6875 L 345.53125 453.6875 L 345.53125 626 L 329.84375 626 L 329.84375 453.6875 z M 374.8125 453.6875 L 390.5 453.6875 L 390.5 606.84375 L 428.71875 606.84375 L 428.71875 626 L 374.8125 626 L 374.8125 453.6875 z "
       id="rect3001" />
    <text
       xml:space="preserve"
       style="font-size:243.55455016999999884px;font-style:normal;font-variant:normal;font-weight:normal;font-stretch:normal;text-align:start;line-height:125%;letter-spacing:0px;word-spacing:0px;writing-mode:lr-tb;text-anchor:start;fill:#ffffff;fill-opacity:1;stroke:none;font-family:Umpush;-inkscape-font-specification:Umpush"
       x="240.58952"
       y="464.41129"
       id="text2985"
       sodipodi:linespacing="125%"
       transform="matrix(1.1485726,0,-0.32183691,0.87064588,0,0)"><tspan
         sodipodi:role="line"
         x="240.58952"
         y="464.41129"
         id="tspan2989">TS</tspan></text>
  </g>
</svg>
